<svg width="28" height="28" viewBox="0 0 28 28" fill="none" xmlns="http://www.w3.org/2000/svg">
<path d="M22.1667 3.5H5.83333C4.54467 3.5 3.5 4.54467 3.5 5.83333V22.1667C3.5 23.4553 4.54467 24.5 5.83333 24.5H22.1667C23.4553 24.5 24.5 23.4553 24.5 22.1667V5.83333C24.5 4.54467 23.4553 3.5 22.1667 3.5Z" stroke="black" stroke-width="1.75" stroke-linecap="round" stroke-linejoin="round"/>
<path d="M9.9165 11.6665C10.883 11.6665 11.6665 10.883 11.6665 9.9165C11.6665 8.95001 10.883 8.1665 9.9165 8.1665C8.95001 8.1665 8.1665 8.95001 8.1665 9.9165C8.1665 10.883 8.95001 11.6665 9.9165 11.6665Z" stroke="black" stroke-width="1.75" stroke-linecap="round" stroke-linejoin="round"/>
<path d="M24.5002 17.4998L18.6668 11.6665L5.8335 24.4998" stroke="black" stroke-width="1.75" stroke-linecap="round" stroke-linejoin="round"/>
</svg>
