<svg width="220" height="36" viewBox="0 0 220 36" fill="none" xmlns="http://www.w3.org/2000/svg">
<path fill-rule="evenodd" clip-rule="evenodd" d="M15.9256 34.0826C21.9148 34.0826 25.4635 31.9531 28.6574 28.5373L24.3101 24.1454C21.8703 26.364 19.6963 27.7832 16.1476 27.7832C10.8242 27.7832 7.14189 23.3467 7.14189 18.0233V17.935C7.14189 12.6116 10.9125 8.2643 16.1476 8.2643C19.2532 8.2643 21.6929 9.59515 24.0881 11.7684L28.4355 6.75605C25.5518 3.91696 22.0477 1.96484 16.1921 1.96484C6.65424 1.96484 0 9.19581 0 18.0233V18.1124C0 27.029 6.7871 34.0826 15.9256 34.0826ZM34.1137 33.5504H57.7587V27.4729H40.9008V20.9515H55.5401V14.874H40.9008V8.57455H57.5367V2.49703H34.1137V33.5504ZM63.5413 33.5504H70.3729V23.6132H75.7409L82.3951 33.5504H90.3802L82.7945 22.4598C86.7425 20.9961 89.4487 17.8459 89.4487 12.8336V12.7445C89.4487 9.81631 88.5172 7.37655 86.787 5.64637C84.7466 3.60594 81.6855 2.49703 77.7375 2.49703H63.5413V33.5504ZM70.3729 17.5802V8.66363H77.1608C80.4875 8.66363 82.528 10.1719 82.528 13.0993V13.1884C82.528 15.8055 80.6204 17.5802 77.2937 17.5802H70.3729ZM133.652 28.9812H139.952V20.9961H147.981V14.874H139.952V6.88891H133.652V14.874H125.623V20.9961H133.652V28.9812ZM161.298 28.9812H167.598V20.9961H175.627V14.874H167.598V6.88891H161.298V14.874H153.269V20.9961H161.298V28.9812ZM108.942 33.9935C115.641 33.9935 120.343 30.5339 120.343 24.3673V24.279C120.343 18.8665 116.794 16.6042 110.495 14.9623C105.127 13.5877 103.796 12.9219 103.796 10.8815V10.7924C103.796 9.28413 105.172 8.0869 107.789 8.0869C110.406 8.0869 113.112 9.24035 115.863 11.1472L119.412 6.00193C116.261 3.47309 112.403 2.05316 107.877 2.05316C101.534 2.05316 97.0091 5.77999 97.0091 11.4136V11.5027C97.0091 17.6686 101.045 19.3987 107.301 20.9961C112.491 22.3269 113.556 23.2139 113.556 24.9441V25.0331C113.556 26.8516 111.87 27.9606 109.075 27.9606C105.526 27.9606 102.598 26.4968 99.8037 24.1899L95.7666 29.0257C99.4934 32.3524 104.24 33.9935 108.942 33.9935Z" fill="#00556F"/>
<path d="M201.79 0C192.077 0 183.579 7.72 183.579 18C183.579 22.24 185.076 26.14 187.565 29.22L183.579 33.18L186.432 36L190.418 32.06C193.554 34.52 197.5 36 201.79 36C206.443 36 211.117 34.24 214.658 30.72C218.22 27.22 220 22.6 220 18V0H201.79ZM215.953 18C215.953 21.74 214.476 25.26 211.805 27.9C209.135 30.54 205.573 32 201.79 32C193.979 32 187.626 25.72 187.626 18C187.626 14.2 189.123 10.64 191.875 8.02C194.546 5.42 198.067 4 201.79 4H215.953V18Z" fill="#00556F"/>
<path d="M194.627 19.2601L202.822 20.0601L197.884 26.7201C197.662 27.0401 197.682 27.4801 197.965 27.7601C198.269 28.0601 198.775 28.0801 199.099 27.7801L209.539 18.5201C210.207 17.9201 209.843 16.8201 208.932 16.7401L200.737 15.9401L205.675 9.28013C205.897 8.96013 205.877 8.52013 205.594 8.24013C205.29 7.94013 204.784 7.92013 204.461 8.22013L194.02 17.4801C193.372 18.0801 193.737 19.1801 194.627 19.2601Z" fill="#00556F"/>
</svg>
