<svg width="444" height="120" viewBox="0 0 444 120" fill="none" xmlns="http://www.w3.org/2000/svg">
<path fill-rule="evenodd" clip-rule="evenodd" d="M28.7987 56.6436C39.3614 56.6436 45.6199 52.8879 51.2527 46.8637L43.5856 39.1181C39.2828 43.0309 35.4486 45.5337 29.1901 45.5337C19.8016 45.5337 13.3074 37.7096 13.3074 28.3211V28.1654C13.3074 18.7769 19.9574 11.1099 29.1901 11.1099C34.6671 11.1099 38.9699 13.457 43.1942 17.2898L50.8613 8.44988C45.7756 3.44279 39.5957 0 29.2686 0C12.4474 0 0.711853 12.7527 0.711853 28.3211V28.4782C0.711853 44.2037 12.6817 56.6436 28.7987 56.6436ZM60.8754 55.705H102.576V44.9866H72.8453V33.4853H98.6636V22.7669H72.8453V11.657H102.185V0.938575H60.8754V55.705ZM112.775 55.705H124.823V38.1795H134.29L146.026 55.705H160.108L146.73 36.1453C153.693 33.5639 158.466 28.0083 158.466 19.1683V19.0112C158.466 13.847 156.823 9.54421 153.771 6.49282C150.173 2.89428 144.774 0.938575 137.811 0.938575H112.775V55.705ZM124.823 27.5396V11.8141H136.794C142.661 11.8141 146.26 14.4741 146.26 19.6369V19.794C146.26 24.4097 142.896 27.5396 137.029 27.5396H124.823ZM236.424 47.6465H247.534V33.5639H261.694V22.7669H247.534V8.68419H236.424V22.7669H222.263V33.5639H236.424V47.6465ZM285.181 47.6465H296.291V33.5639H310.451V22.7669H296.291V8.68419H285.181V22.7669H271.02V33.5639H285.181V47.6465ZM192.845 56.4865C204.659 56.4865 212.952 50.3851 212.952 39.5095V39.3538C212.952 29.8082 206.693 25.8182 195.583 22.9226C186.116 20.4983 183.769 19.3241 183.769 15.7255V15.5684C183.769 12.9084 186.195 10.797 190.81 10.797C195.426 10.797 200.199 12.8312 205.05 16.1941L211.309 7.11989C205.753 2.65997 198.947 0.155752 190.966 0.155752C179.779 0.155752 171.799 6.72848 171.799 16.6641V16.8212C171.799 27.6954 178.918 30.7468 189.95 33.5639C199.103 35.911 200.982 37.4753 200.982 40.5267V40.6838C200.982 43.8909 198.009 45.8466 193.079 45.8466C186.821 45.8466 181.656 43.2652 176.728 39.1967L169.608 47.7251C176.181 53.5922 184.552 56.4865 192.845 56.4865Z" fill="#00AAB8"/>
<path fill-rule="evenodd" clip-rule="evenodd" d="M61.4101 119.682H65.8227V114.86H67.7553L70.9625 119.682H76.0562L72.2586 114.133C74.2373 113.29 75.5335 111.676 75.5335 109.242V109.198C75.5335 107.628 75.0567 106.399 74.1236 105.489C73.055 104.398 71.3715 103.761 68.9377 103.761H61.4101V119.682ZM65.8227 111.404V107.582H68.7102C70.1891 107.582 71.0993 108.22 71.0993 109.47V109.516C71.0993 110.675 70.2352 111.404 68.7332 111.404H65.8227ZM77.7627 119.682H90.6807V115.929H82.1292V113.404H89.7705V109.925H82.1292V107.514H90.5669V103.761H77.7627V119.682ZM99.1861 119.955C103.053 119.955 105.622 118.021 105.622 114.769V114.723C105.622 111.744 103.348 110.561 99.6872 109.765C97.4809 109.265 96.9351 108.947 96.9351 108.22V108.174C96.9351 107.605 97.4579 107.15 98.5265 107.15C99.9364 107.15 101.529 107.696 102.985 108.719L105.19 105.603C103.462 104.216 101.346 103.489 98.6403 103.489C94.8196 103.489 92.4766 105.626 92.4766 108.583V108.629C92.4766 111.904 95.0932 112.858 98.4818 113.632C100.642 114.133 101.165 114.496 101.165 115.155V115.201C101.165 115.884 100.528 116.293 99.3459 116.293C97.504 116.293 95.7514 115.633 94.1831 114.382L91.7262 117.317C93.6819 119.068 96.3663 119.955 99.1861 119.955ZM107.761 119.682H112.173V115.132H114.356C118.314 115.132 121.201 113.155 121.201 109.402V109.356C121.201 105.831 118.609 103.761 114.584 103.761H107.761V119.682ZM112.173 111.676V107.468H114.243C115.834 107.468 116.789 108.197 116.789 109.561V109.607C116.789 110.857 115.834 111.676 114.264 111.676H112.173ZM131.072 120C135.984 120 139.669 116.293 139.669 111.722V111.676C139.669 107.105 136.03 103.443 131.118 103.443C126.204 103.443 122.52 107.15 122.52 111.722V111.767C122.52 116.339 126.16 120 131.072 120ZM131.118 116.019C128.707 116.019 127.047 114.019 127.047 111.722V111.676C127.047 109.379 128.661 107.423 131.072 107.423C133.506 107.423 135.166 109.425 135.166 111.722V111.767C135.166 114.064 133.55 116.019 131.118 116.019ZM141.965 119.682H146.333V110.949L153.133 119.682H156.998V103.761H152.632V112.176L146.082 103.761H141.965V119.682ZM166.073 119.955C169.939 119.955 172.51 118.021 172.51 114.769V114.723C172.51 111.744 170.235 110.561 166.574 109.765C164.368 109.265 163.822 108.947 163.822 108.22V108.174C163.822 107.605 164.345 107.15 165.413 107.15C166.824 107.15 168.416 107.696 169.872 108.719L172.078 105.603C170.348 104.216 168.234 103.489 165.527 103.489C161.706 103.489 159.365 105.626 159.365 108.583V108.629C159.365 111.904 161.98 112.858 165.368 113.632C167.529 114.133 168.051 114.496 168.051 115.155V115.201C168.051 115.884 167.415 116.293 166.233 116.293C164.391 116.293 162.639 115.633 161.07 114.382L158.613 117.317C160.57 119.068 163.253 119.955 166.073 119.955ZM173.033 119.682H177.672L178.809 116.839H184.95L186.109 119.682H190.84L184.063 103.647H179.81L173.033 119.682ZM180.105 113.404L181.903 108.879L183.677 113.404H180.105ZM192.387 119.682H200.597C204.396 119.682 206.624 118.021 206.624 115.292V115.246C206.624 113.086 205.397 111.994 203.463 111.358C204.873 110.744 205.919 109.651 205.919 107.809V107.765C205.919 106.673 205.532 105.831 204.896 105.194C203.964 104.262 202.553 103.761 200.552 103.761H192.387V119.682ZM196.685 110.106V107.31H199.551C200.87 107.31 201.553 107.809 201.553 108.673V108.719C201.553 109.651 200.801 110.106 199.461 110.106H196.685ZM196.685 116.133V113.2H200.051C201.53 113.2 202.213 113.769 202.213 114.633V114.679C202.213 115.61 201.439 116.133 200.097 116.133H196.685ZM208.649 119.682H220.77V115.815H213.061V103.761H208.649V119.682ZM222.658 119.682H235.576V115.929H227.025V113.404H234.666V109.925H227.025V107.514H235.462V103.761H222.658V119.682ZM244.081 119.955C247.948 119.955 250.519 118.021 250.519 114.769V114.723C250.519 111.744 248.243 110.561 244.583 109.765C242.376 109.265 241.83 108.947 241.83 108.22V108.174C241.83 107.605 242.353 107.15 243.422 107.15C244.833 107.15 246.424 107.696 247.88 108.719L250.087 105.603C248.357 104.216 246.243 103.489 243.536 103.489C239.715 103.489 237.373 105.626 237.373 108.583V108.629C237.373 111.904 239.989 112.858 243.377 113.632C245.537 114.133 246.06 114.496 246.06 115.155V115.201C246.06 115.884 245.424 116.293 244.241 116.293C242.399 116.293 240.648 115.633 239.078 114.382L236.622 117.317C238.579 119.068 241.262 119.955 244.081 119.955ZM263.55 119.682H267.985V113.655L274.035 103.761H269.099L265.801 109.561L262.527 103.761H257.5L263.55 113.722V119.682ZM287.953 119.955C291.819 119.955 294.389 118.021 294.389 114.769V114.723C294.389 111.744 292.115 110.561 288.453 109.765C286.247 109.265 285.701 108.947 285.701 108.22V108.174C285.701 107.605 286.224 107.15 287.294 107.15C288.704 107.15 290.295 107.696 291.751 108.719L293.957 105.603C292.229 104.216 290.114 103.489 287.408 103.489C283.586 103.489 281.244 105.626 281.244 108.583V108.629C281.244 111.904 283.859 112.858 287.248 113.632C289.408 114.133 289.932 114.496 289.932 115.155V115.201C289.932 115.884 289.294 116.293 288.112 116.293C286.27 116.293 284.519 115.633 282.949 114.382L280.494 117.317C282.449 119.068 285.132 119.955 287.953 119.955ZM304.532 120C309.444 120 313.13 116.293 313.13 111.722V111.676C313.13 107.105 309.49 103.443 304.578 103.443C299.666 103.443 295.981 107.15 295.981 111.722V111.767C295.981 116.339 299.62 120 304.532 120ZM304.578 116.019C302.167 116.019 300.507 114.019 300.507 111.722V111.676C300.507 109.379 302.121 107.423 304.532 107.423C306.966 107.423 308.626 109.425 308.626 111.722V111.767C308.626 114.064 307.012 116.019 304.578 116.019ZM321.567 119.955C325.434 119.955 328.003 118.021 328.003 114.769V114.723C328.003 111.744 325.729 110.561 322.067 109.765C319.862 109.265 319.315 108.947 319.315 108.22V108.174C319.315 107.605 319.839 107.15 320.908 107.15C322.318 107.15 323.91 107.696 325.365 108.719L327.571 105.603C325.843 104.216 323.728 103.489 321.022 103.489C317.201 103.489 314.858 105.626 314.858 108.583V108.629C314.858 111.904 317.473 112.858 320.862 113.632C323.023 114.133 323.546 114.496 323.546 115.155V115.201C323.546 115.884 322.909 116.293 321.727 116.293C319.884 116.293 318.133 115.633 316.564 114.382L314.107 117.317C316.063 119.068 318.748 119.955 321.567 119.955ZM333.575 119.682H337.988V107.628H342.764V103.761H328.8V107.628H333.575V119.682ZM344.697 119.682H357.615V115.929H349.064V113.404H356.705V109.925H349.064V107.514H357.501V103.761H344.697V119.682ZM359.866 119.682H364.234V110.949L371.033 119.682H374.899V103.761H370.533V112.176L363.983 103.761H359.866V119.682ZM377.81 119.682H382.246V103.761H377.81V119.682ZM385.156 119.682H393.366C397.165 119.682 399.393 118.021 399.393 115.292V115.246C399.393 113.086 398.166 111.994 396.232 111.358C397.642 110.744 398.689 109.651 398.689 107.809V107.765C398.689 106.673 398.302 105.831 397.665 105.194C396.733 104.262 395.323 103.761 393.322 103.761H385.156V119.682ZM389.455 110.106V107.31H392.321C393.64 107.31 394.322 107.809 394.322 108.673V108.719C394.322 109.651 393.572 110.106 392.23 110.106H389.455ZM389.455 116.133V113.2H392.82C394.299 113.2 394.982 113.769 394.982 114.633V114.679C394.982 115.61 394.209 116.133 392.866 116.133H389.455ZM401.418 119.682H413.54V115.815H405.83V103.761H401.418V119.682ZM415.427 119.682H428.345V115.929H419.794V113.404H427.437V109.925H419.794V107.514H428.232V103.761H415.427V119.682ZM436.851 119.955C440.718 119.955 443.288 118.021 443.288 114.769V114.723C443.288 111.744 441.014 110.561 437.352 109.765C435.146 109.265 434.6 108.947 434.6 108.22V108.174C434.6 107.605 435.123 107.15 436.191 107.15C437.603 107.15 439.194 107.696 440.65 108.719L442.856 105.603C441.128 104.216 439.012 103.489 436.305 103.489C432.484 103.489 430.143 105.626 430.143 108.583V108.629C430.143 111.904 432.758 112.858 436.147 113.632C438.307 114.133 438.83 114.496 438.83 115.155V115.201C438.83 115.884 438.193 116.293 437.011 116.293C435.169 116.293 433.418 115.633 431.848 114.382L429.392 117.317C431.348 119.068 434.031 119.955 436.851 119.955Z" fill="#00AAB8"/>
<path fill-rule="evenodd" clip-rule="evenodd" d="M69.0746 96.3825C72.6 96.3825 74.6235 94.8589 76.1254 92.7894L72.8045 90.4233C71.8497 91.584 70.8719 92.3574 69.2114 92.3574C66.9821 92.3574 65.4124 90.4924 65.4124 88.1047V88.0586C65.4124 85.7386 66.9821 83.8506 69.2114 83.8506C70.7351 83.8506 71.7806 84.5793 72.6908 85.7156L76.0117 83.1463C74.6018 81.1906 72.5093 79.8254 69.2561 79.8254C64.4346 79.8254 60.8645 83.4646 60.8645 88.1047V88.1494C60.8645 92.9032 64.5253 96.3825 69.0746 96.3825ZM78.0121 96.0643H90.135V92.1976H82.4246V80.1437H78.0121V96.0643ZM98.7325 96.3595C103.257 96.3595 106.191 94.1086 106.191 88.9688V80.1437H101.711V89.1042C101.711 91.3335 100.551 92.3804 98.7772 92.3804C97.003 92.3804 95.8436 91.2874 95.8436 88.9904V80.1437H91.3634V89.0825C91.3634 94.0625 94.2062 96.3595 98.7325 96.3595ZM108.808 96.0643H117.018C120.815 96.0643 123.045 94.4038 123.045 91.6748V91.6287C123.045 89.4685 121.816 88.3769 119.882 87.7403C121.294 87.1255 122.339 86.0338 122.339 84.1919V84.1472C122.339 83.0556 121.953 82.2132 121.315 81.5766C120.383 80.6448 118.973 80.1437 116.972 80.1437H108.808V96.0643ZM113.105 86.4889V83.6921H115.971C117.29 83.6921 117.973 84.1919 117.973 85.056V85.102C117.973 86.0338 117.222 86.4889 115.88 86.4889H113.105ZM113.105 92.5158V89.5823H116.472C117.95 89.5823 118.632 90.1511 118.632 91.0152V91.0612C118.632 91.993 117.859 92.5158 116.517 92.5158H113.105ZM131.369 96.0643H137.417C143.149 96.0643 146.493 92.6526 146.493 88.0586V88.0126C146.493 83.4186 143.195 80.1437 137.509 80.1437H131.369V96.0643ZM135.78 92.1529V84.0551H137.577C140.215 84.0551 141.967 85.5341 141.967 88.0816V88.1263C141.967 90.6969 140.215 92.1529 137.577 92.1529H135.78ZM148.767 96.0643H161.685V92.3113H153.133V89.7868H160.775V86.3074H153.133V83.8967H161.571V80.1437H148.767V96.0643ZM170.236 96.0643H183.154V92.3113H174.603V89.7868H182.244V86.3074H174.603V83.8967H183.04V80.1437H170.236V96.0643ZM185.405 96.0643H189.727V86.967L193.775 93.1524H193.866L197.937 86.921V96.0643H202.327V80.1437H197.663L193.866 86.3074L190.068 80.1437H185.405V96.0643ZM205.146 96.0643H209.559V91.515H211.742C215.699 91.515 218.587 89.5362 218.587 85.7846V85.7386C218.587 82.2132 215.995 80.1437 211.97 80.1437H205.146V96.0643ZM209.559 88.0586V83.8506H211.628C213.22 83.8506 214.176 84.5793 214.176 85.9431V85.9892C214.176 87.2392 213.22 88.0586 211.651 88.0586H209.559ZM220.452 96.0643H224.864V91.2427H226.797L230.004 96.0643H235.099L231.3 90.5154C233.279 89.673 234.575 88.0586 234.575 85.6248V85.5801C234.575 84.0104 234.099 82.782 233.165 81.8719C232.097 80.7803 230.413 80.1437 227.981 80.1437H220.452V96.0643ZM224.864 87.785V83.9644H227.753C229.231 83.9644 230.141 84.6009 230.141 85.8524V85.8984C230.141 87.0577 229.277 87.785 227.775 87.785H224.864ZM236.805 96.0643H249.722V92.3113H241.171V89.7868H248.812V86.3074H241.171V83.8967H249.609V80.1437H236.805V96.0643ZM258.228 96.3365C262.095 96.3365 264.665 94.4038 264.665 91.152V91.1059C264.665 88.1263 262.39 86.944 258.729 86.1476C256.523 85.6479 255.977 85.3296 255.977 84.6009V84.5562C255.977 83.9874 256.5 83.5323 257.568 83.5323C258.98 83.5323 260.571 84.0781 262.027 85.102L264.233 81.9857C262.504 80.5988 260.389 79.8715 257.682 79.8715C253.861 79.8715 251.52 82.0087 251.52 84.9652V85.0113C251.52 88.2862 254.135 89.241 257.524 90.0143C259.684 90.5154 260.207 90.8784 260.207 91.538V91.584C260.207 92.2666 259.57 92.6756 258.388 92.6756C256.546 92.6756 254.795 92.0161 253.225 90.7646L250.768 93.6982C252.725 95.4507 255.408 96.3365 258.228 96.3365ZM265.188 96.0643H269.827L270.964 93.2215H277.105L278.264 96.0643H282.995L276.218 80.0299H271.965L265.188 96.0643ZM272.26 89.7868L274.058 85.2605L275.832 89.7868H272.26ZM290.569 96.3365C294.435 96.3365 297.006 94.4038 297.006 91.152V91.1059C297.006 88.1263 294.731 86.944 291.07 86.1476C288.864 85.6479 288.318 85.3296 288.318 84.6009V84.5562C288.318 83.9874 288.841 83.5323 289.909 83.5323C291.319 83.5323 292.912 84.0781 294.368 85.102L296.574 81.9857C294.845 80.5988 292.73 79.8715 290.023 79.8715C286.202 79.8715 283.859 82.0087 283.859 84.9652V85.0113C283.859 88.2862 286.476 89.241 289.865 90.0143C292.025 90.5154 292.548 90.8784 292.548 91.538V91.584C292.548 92.2666 291.911 92.6756 290.729 92.6756C288.887 92.6756 287.135 92.0161 285.566 90.7646L283.109 93.6982C285.066 95.4507 287.749 96.3365 290.569 96.3365Z" fill="#00AAB8"/>
</svg>
