<svg width="894" height="250" viewBox="0 0 894 250" fill="none" xmlns="http://www.w3.org/2000/svg">
<path fill-rule="evenodd" clip-rule="evenodd" d="M56.7351 121.42C78.0716 121.42 90.7138 113.833 102.092 101.664L86.6046 86.0182C77.913 93.922 70.1679 98.9777 57.5257 98.9777C38.5612 98.9777 25.443 83.173 25.443 64.2084V63.8938C25.443 44.9292 38.8758 29.4418 57.5257 29.4418C68.5893 29.4418 77.281 34.1829 85.814 41.9253L101.301 24.0687C91.0284 13.9544 78.5449 7 57.6844 7C23.7057 7 0 32.7603 0 64.2084V64.5257C0 96.2912 24.179 121.42 56.7351 121.42ZM121.53 119.524H205.765V97.8725H145.709V74.64H197.862V52.9889H145.709V30.5471H204.975V8.89591H121.53V119.524ZM226.366 119.524H250.704V84.1223H269.827L293.533 119.524H321.979L294.955 80.0131C309.02 74.7987 318.661 63.5764 318.661 45.7198V45.4025C318.661 34.9709 315.342 26.2792 309.179 20.1154C301.91 12.8464 291.005 8.89591 276.94 8.89591H226.366V119.524ZM250.704 62.6298V30.8644H274.885C286.737 30.8644 294.006 36.2375 294.006 46.6664V46.9838C294.006 56.3074 287.21 62.6298 275.359 62.6298H250.704ZM476.137 103.246H498.578V74.7987H527.181V52.9889H498.578V24.542H476.137V52.9889H447.531V74.7987H476.137V103.246ZM574.625 103.246H597.067V74.7987H625.67V52.9889H597.067V24.542H574.625V52.9889H546.02V74.7987H574.625V103.246ZM388.107 121.102C411.971 121.102 428.722 108.777 428.722 86.8089V86.4942C428.722 67.2123 416.08 59.1526 393.638 53.3035C374.515 48.4064 369.774 46.0345 369.774 38.7654V38.4481C369.774 33.0749 374.674 28.8098 383.997 28.8098C393.321 28.8098 402.962 32.919 412.762 39.712L425.404 21.3821C414.182 12.3731 400.434 7.31462 384.312 7.31462C361.714 7.31462 345.595 20.5915 345.595 40.6613V40.9787C345.595 62.9445 359.974 69.1082 382.26 74.7987C400.749 79.5398 404.543 82.6997 404.543 88.8635V89.1808C404.543 95.6592 398.538 99.6097 388.58 99.6097C375.938 99.6097 365.506 94.3953 355.551 86.1769L341.168 103.404C354.445 115.256 371.355 121.102 388.107 121.102Z" fill="#00AAB8"/>
<path fill-rule="evenodd" clip-rule="evenodd" d="M122.61 248.756H131.523V239.016H135.427L141.906 248.756H152.195L144.524 237.547C148.521 235.846 151.139 232.585 151.139 227.668V227.578C151.139 224.407 150.176 221.926 148.291 220.087C146.132 217.882 142.732 216.597 137.816 216.597H122.61V248.756ZM131.523 232.035V224.314H137.356C140.343 224.314 142.182 225.603 142.182 228.128V228.221C142.182 230.563 140.436 232.035 137.402 232.035H131.523ZM155.642 248.756H181.736V241.175H164.462V236.075H179.898V229.047H164.462V224.177H181.506V216.597H155.642V248.756ZM198.917 249.309C206.728 249.309 211.918 245.402 211.918 238.833V238.74C211.918 232.721 207.324 230.333 199.929 228.724C195.473 227.715 194.37 227.072 194.37 225.603V225.51C194.37 224.361 195.426 223.442 197.585 223.442C200.433 223.442 203.65 224.544 206.591 226.612L211.045 220.317C207.554 217.516 203.281 216.047 197.815 216.047C190.097 216.047 185.364 220.364 185.364 226.336V226.429C185.364 233.044 190.649 234.973 197.494 236.535C201.858 237.547 202.914 238.28 202.914 239.613V239.706C202.914 241.085 201.628 241.911 199.24 241.911C195.519 241.911 191.979 240.579 188.811 238.051L183.848 243.979C187.799 247.517 193.221 249.309 198.917 249.309ZM216.237 248.756H225.151V239.566H229.561C237.555 239.566 243.388 235.572 243.388 227.991V227.898C243.388 220.777 238.151 216.597 230.02 216.597H216.237V248.756ZM225.151 232.585V224.084H229.331C232.546 224.084 234.474 225.556 234.474 228.311V228.404C234.474 230.929 232.546 232.585 229.375 232.585H225.151ZM263.326 249.399C273.249 249.399 280.693 241.911 280.693 232.678V232.585C280.693 223.351 273.342 215.954 263.419 215.954C253.494 215.954 246.052 223.442 246.052 232.678V232.768C246.052 242.004 253.403 249.399 263.326 249.399ZM263.419 241.358C258.549 241.358 255.195 237.318 255.195 232.678V232.585C255.195 227.945 258.456 223.994 263.326 223.994C268.242 223.994 271.596 228.038 271.596 232.678V232.768C271.596 237.408 268.333 241.358 263.419 241.358ZM285.33 248.756H294.153V231.115L307.89 248.756H315.698V216.597H306.877V233.594L293.647 216.597H285.33V248.756ZM334.027 249.309C341.838 249.309 347.031 245.402 347.031 238.833V238.74C347.031 232.721 342.435 230.333 335.04 228.724C330.583 227.715 329.481 227.072 329.481 225.603V225.51C329.481 224.361 330.537 223.442 332.695 223.442C335.546 223.442 338.76 224.544 341.701 226.612L346.158 220.317C342.664 217.516 338.394 216.047 332.925 216.047C325.207 216.047 320.477 220.364 320.477 226.336V226.429C320.477 233.044 325.76 234.973 332.605 236.535C336.968 237.547 338.024 238.28 338.024 239.613V239.706C338.024 241.085 336.739 241.911 334.35 241.911C330.63 241.911 327.092 240.579 323.921 238.051L318.959 243.979C322.912 247.517 328.331 249.309 334.027 249.309ZM348.087 248.756H357.457L359.755 243.013H372.159L374.501 248.756H384.057L370.367 216.367H361.777L348.087 248.756ZM362.373 236.075L366.004 226.935L369.587 236.075H362.373ZM387.181 248.756H403.766C411.44 248.756 415.94 245.402 415.94 239.889V239.796C415.94 235.433 413.461 233.227 409.555 231.942C412.403 230.702 414.517 228.495 414.517 224.774V224.684C414.517 222.479 413.735 220.777 412.449 219.491C410.567 217.609 407.716 216.597 403.676 216.597H387.181V248.756ZM395.865 229.414V223.764H401.654C404.318 223.764 405.697 224.774 405.697 226.519V226.612C405.697 228.495 404.179 229.414 401.47 229.414H395.865ZM395.865 241.588V235.662H402.663C405.651 235.662 407.03 236.811 407.03 238.557V238.65C407.03 240.532 405.467 241.588 402.756 241.588H395.865ZM420.03 248.756H444.516V240.945H428.943V216.597H420.03V248.756ZM448.329 248.756H474.423V241.175H457.15V236.075H472.585V229.047H457.15V224.177H474.194V216.597H448.329V248.756ZM491.604 249.309C499.415 249.309 504.608 245.402 504.608 238.833V238.74C504.608 232.721 500.011 230.333 492.617 228.724C488.16 227.715 487.057 227.072 487.057 225.603V225.51C487.057 224.361 488.113 223.442 490.272 223.442C493.123 223.442 496.337 224.544 499.278 226.612L503.735 220.317C500.241 217.516 495.971 216.047 490.502 216.047C482.784 216.047 478.054 220.364 478.054 226.336V226.429C478.054 233.044 483.337 234.973 490.182 236.535C494.545 237.547 495.601 238.28 495.601 239.613V239.706C495.601 241.085 494.315 241.911 491.927 241.911C488.206 241.911 484.669 240.579 481.498 238.051L476.535 243.979C480.489 247.517 485.908 249.309 491.604 249.309ZM530.931 248.756H539.888V236.582L552.109 216.597H542.14L535.478 228.311L528.863 216.597H518.711L530.931 236.718V248.756ZM580.225 249.309C588.033 249.309 593.226 245.402 593.226 238.833V238.74C593.226 232.721 588.632 230.333 581.235 228.724C576.778 227.715 575.676 227.072 575.676 225.603V225.51C575.676 224.361 576.732 223.442 578.893 223.442C581.741 223.442 584.955 224.544 587.896 226.612L592.353 220.317C588.862 217.516 584.589 216.047 579.123 216.047C571.402 216.047 566.672 220.364 566.672 226.336V226.429C566.672 233.044 571.955 234.973 578.8 236.535C583.163 237.547 584.222 238.28 584.222 239.613V239.706C584.222 241.085 582.934 241.911 580.545 241.911C576.825 241.911 573.287 240.579 570.116 238.051L565.156 243.979C569.107 247.517 574.526 249.309 580.225 249.309ZM613.714 249.399C623.637 249.399 631.081 241.911 631.081 232.678V232.585C631.081 223.351 623.73 215.954 613.807 215.954C603.884 215.954 596.44 223.442 596.44 232.678V232.768C596.44 242.004 603.791 249.399 613.714 249.399ZM613.807 241.358C608.937 241.358 605.583 237.318 605.583 232.678V232.585C605.583 227.945 608.844 223.994 613.714 223.994C618.63 223.994 621.984 228.038 621.984 232.678V232.768C621.984 237.408 618.723 241.358 613.807 241.358ZM648.125 249.309C655.936 249.309 661.126 245.402 661.126 238.833V238.74C661.126 232.721 656.532 230.333 649.135 228.724C644.681 227.715 643.575 227.072 643.575 225.603V225.51C643.575 224.361 644.634 223.442 646.793 223.442C649.641 223.442 652.858 224.544 655.796 226.612L660.253 220.317C656.762 217.516 652.489 216.047 647.023 216.047C639.305 216.047 634.572 220.364 634.572 226.336V226.429C634.572 233.044 639.855 234.973 646.7 236.535C651.066 237.547 652.122 238.28 652.122 239.613V239.706C652.122 241.085 650.836 241.911 648.448 241.911C644.724 241.911 641.187 240.579 638.019 238.051L633.056 243.979C637.007 247.517 642.429 249.309 648.125 249.309ZM672.381 248.756H681.294V224.407H690.943V216.597H662.734V224.407H672.381V248.756ZM694.847 248.756H720.941V241.175H703.667V236.075H719.103V229.047H703.667V224.177H720.711V216.597H694.847V248.756ZM725.488 248.756H734.311V231.115L748.045 248.756H755.856V216.597H747.035V233.594L733.805 216.597H725.488V248.756ZM761.735 248.756H770.695V216.597H761.735V248.756ZM776.574 248.756H793.158C800.832 248.756 805.333 245.402 805.333 239.889V239.796C805.333 235.433 802.854 233.227 798.947 231.942C801.795 230.702 803.91 228.495 803.91 224.774V224.684C803.91 222.479 803.128 220.777 801.842 219.491C799.959 217.609 797.111 216.597 793.068 216.597H776.574V248.756ZM785.257 229.414V223.764H791.046C793.711 223.764 795.09 224.774 795.09 226.519V226.612C795.09 228.495 793.574 229.414 790.863 229.414H785.257ZM785.257 241.588V235.662H792.056C795.043 235.662 796.422 236.811 796.422 238.557V238.65C796.422 240.532 794.86 241.588 792.149 241.588H785.257ZM809.423 248.756H833.908V240.945H818.336V216.597H809.423V248.756ZM837.722 248.756H863.816V241.175H846.542V236.075H861.98V229.047H846.542V224.177H863.586V216.597H837.722V248.756ZM880.997 249.309C888.807 249.309 894 245.402 894 238.833V238.74C894 232.721 889.407 230.333 882.009 228.724C877.552 227.715 876.45 227.072 876.45 225.603V225.51C876.45 224.361 877.506 223.442 879.664 223.442C882.515 223.442 885.73 224.544 888.671 226.612L893.127 220.317C889.636 217.516 885.363 216.047 879.894 216.047C872.176 216.047 867.446 220.364 867.446 226.336V226.429C867.446 233.044 872.729 234.973 879.574 236.535C883.938 237.547 884.994 238.28 884.994 239.613V239.706C884.994 241.085 883.708 241.911 881.32 241.911C877.599 241.911 874.061 240.579 870.891 238.051L865.931 243.979C869.881 247.517 875.301 249.309 880.997 249.309Z" fill="#00AAB8"/>
<path fill-rule="evenodd" clip-rule="evenodd" d="M138.092 201.692C145.213 201.692 149.301 198.614 152.335 194.434L145.627 189.654C143.698 191.999 141.723 193.561 138.368 193.561C133.865 193.561 130.695 189.794 130.695 184.971V184.878C130.695 180.191 133.865 176.377 138.368 176.377C141.446 176.377 143.558 177.849 145.397 180.145L152.105 174.955C149.257 171.004 145.03 168.247 138.459 168.247C128.719 168.247 121.508 175.598 121.508 184.971V185.061C121.508 194.663 128.903 201.692 138.092 201.692ZM156.146 201.049H180.634V193.238H165.059V168.889H156.146V201.049ZM198.001 201.645C207.141 201.645 213.067 197.098 213.067 186.716V168.889H204.017V186.99C204.017 191.493 201.675 193.607 198.091 193.607C194.507 193.607 192.165 191.4 192.165 186.76V168.889H183.115V186.946C183.115 197.005 188.858 201.645 198.001 201.645ZM218.352 201.049H234.937C242.608 201.049 247.111 197.695 247.111 192.182V192.089C247.111 187.725 244.63 185.52 240.723 184.235C243.574 182.993 245.686 180.788 245.686 177.067V176.977C245.686 174.771 244.906 173.07 243.618 171.784C241.735 169.902 238.887 168.889 234.844 168.889H218.352V201.049ZM227.033 181.707V176.057H232.822C235.487 176.057 236.866 177.067 236.866 178.812V178.905C236.866 180.788 235.35 181.707 232.639 181.707H227.033ZM227.033 193.881V187.955H233.834C236.819 187.955 238.198 189.104 238.198 190.85V190.943C238.198 192.825 236.636 193.881 233.925 193.881H227.033ZM263.925 201.049H276.144C287.721 201.049 294.476 194.157 294.476 184.878V184.785C294.476 175.505 287.814 168.889 276.33 168.889H263.925V201.049ZM272.836 193.148V176.79H276.466C281.796 176.79 285.333 179.778 285.333 184.924V185.014C285.333 190.207 281.796 193.148 276.466 193.148H272.836ZM299.07 201.049H325.164V193.468H307.89V188.368H323.325V181.34H307.89V176.47H324.934V168.889H299.07V201.049ZM342.438 201.049H368.532V193.468H351.258V188.368H366.693V181.34H351.258V176.47H368.302V168.889H342.438V201.049ZM373.079 201.049H381.809V182.672L389.986 195.167H390.169L398.393 182.579V201.049H407.26V168.889H397.84L390.169 181.34L382.498 168.889H373.079V201.049ZM412.956 201.049H421.869V191.859H426.279C434.273 191.859 440.106 187.862 440.106 180.284V180.191C440.106 173.07 434.869 168.889 426.739 168.889H412.956V201.049ZM421.869 184.878V176.377H426.049C429.264 176.377 431.195 177.849 431.195 180.604V180.697C431.195 183.222 429.264 184.878 426.096 184.878H421.869ZM443.873 201.049H452.786V191.309H456.69L463.169 201.049H473.461L465.787 189.84C469.784 188.139 472.402 184.878 472.402 179.961V179.871C472.402 176.7 471.439 174.219 469.554 172.38C467.395 170.175 463.995 168.889 459.081 168.889H443.873V201.049ZM452.786 184.325V176.607H458.622C461.606 176.607 463.445 177.893 463.445 180.421V180.514C463.445 182.856 461.699 184.325 458.665 184.325H452.786ZM476.905 201.049H502.999V193.468H485.725V188.368H501.161V181.34H485.725V176.47H502.769V168.889H476.905V201.049ZM520.18 201.599C527.991 201.599 533.183 197.695 533.183 191.126V191.033C533.183 185.014 528.587 182.626 521.192 181.017C516.736 180.008 515.633 179.365 515.633 177.893V177.803C515.633 176.654 516.689 175.734 518.848 175.734C521.698 175.734 524.913 176.837 527.854 178.905L532.311 172.61C528.817 169.809 524.546 168.34 519.077 168.34C511.36 168.34 506.63 172.657 506.63 178.629V178.722C506.63 185.337 511.912 187.266 518.757 188.828C523.121 189.84 524.177 190.573 524.177 191.906V191.999C524.177 193.378 522.891 194.204 520.503 194.204C516.782 194.204 513.245 192.872 510.074 190.344L505.111 196.269C509.064 199.81 514.484 201.599 520.18 201.599ZM534.239 201.049H543.609L545.907 195.306H558.312L560.653 201.049H570.21L556.52 168.66H547.929L534.239 201.049ZM548.526 188.368L552.156 179.225L555.74 188.368H548.526ZM585.508 201.599C593.319 201.599 598.512 197.695 598.512 191.126V191.033C598.512 185.014 593.915 182.626 586.521 181.017C582.064 180.008 580.961 179.365 580.961 177.893V177.803C580.961 176.654 582.017 175.734 584.176 175.734C587.024 175.734 590.241 176.837 593.182 178.905L597.639 172.61C594.145 169.809 589.875 168.34 584.406 168.34C576.688 168.34 571.955 172.657 571.955 178.629V178.722C571.955 185.337 577.241 187.266 584.086 188.828C588.449 189.84 589.505 190.573 589.505 191.906V191.999C589.505 193.378 588.219 194.204 585.831 194.204C582.11 194.204 578.573 192.872 575.402 190.344L570.439 196.269C574.393 199.81 579.812 201.599 585.508 201.599Z" fill="#00AAB8"/>
<path d="M718.875 0C684.275 0 654 27.5025 654 64.125C654 79.23 659.334 93.1238 668.2 104.096L654 118.204L664.164 128.25L678.364 114.214C689.537 122.978 703.593 128.25 718.875 128.25C735.454 128.25 752.105 121.98 764.72 109.44C777.407 96.9713 783.75 80.5125 783.75 64.125V0H718.875ZM769.333 64.125C769.333 77.4488 764.071 89.9888 754.556 99.3938C745.041 108.799 732.355 114 718.875 114C691.051 114 668.417 91.6275 668.417 64.125C668.417 50.5875 673.751 37.905 683.554 28.5713C693.069 19.3088 705.612 14.25 718.875 14.25H769.333V64.125Z" fill="#00AAB8"/>
<path d="M693.358 68.6139L722.551 71.4639L704.963 95.1902C704.17 96.3302 704.242 97.8977 705.251 98.8952C706.333 99.9639 708.135 100.035 709.288 98.9664L746.483 65.9777C748.862 63.8402 747.564 59.9214 744.32 59.6364L715.127 56.7864L732.715 33.0602C733.508 31.9202 733.436 30.3527 732.427 29.3552C731.345 28.2864 729.543 28.2152 728.39 29.2839L691.195 62.2727C688.888 64.4102 690.186 68.3289 693.358 68.6139Z" fill="#00AAB8"/>
</svg>
